<svg width="16" height="16" viewBox="0 0 16 16" fill="none" xmlns="http://www.w3.org/2000/svg">
<mask id="mask0_563_1821" style="mask-type:alpha" maskUnits="userSpaceOnUse" x="0" y="0" width="16" height="16">
<rect width="16" height="16" fill="#D9D9D9"/>
</mask>
<g mask="url(#mask0_563_1821)">
<path d="M8.06732 14.6673C7.13398 14.6673 6.25898 14.4895 5.44232 14.134C4.62565 13.7784 3.91454 13.2979 3.30898 12.6923C2.70343 12.0868 2.22287 11.3757 1.86732 10.559C1.51176 9.74232 1.33398 8.86732 1.33398 7.93398C1.33398 6.31176 1.85065 4.88121 2.88398 3.64232C3.91732 2.40343 5.23398 1.63398 6.83398 1.33398C6.63398 2.43398 6.6951 3.50898 7.01732 4.55898C7.33954 5.60898 7.8951 6.52843 8.68398 7.31732C9.47287 8.10621 10.3923 8.66176 11.4423 8.98398C12.4923 9.30621 13.5673 9.36732 14.6673 9.16732C14.3784 10.7673 13.6118 12.084 12.3673 13.1173C11.1229 14.1507 9.68954 14.6673 8.06732 14.6673ZM8.06732 13.334C9.0451 13.334 9.95065 13.0895 10.784 12.6006C11.6173 12.1118 12.2729 11.4395 12.7507 10.584C11.7951 10.4951 10.8895 10.2534 10.034 9.85898C9.17843 9.46454 8.41176 8.92843 7.73398 8.25065C7.05621 7.57287 6.51732 6.80621 6.11732 5.95065C5.71732 5.0951 5.47843 4.18954 5.40065 3.23398C4.5451 3.71176 3.87565 4.3701 3.39232 5.20898C2.90898 6.04787 2.66732 6.95621 2.66732 7.93398C2.66732 9.43398 3.19232 10.709 4.24232 11.759C5.29232 12.809 6.56732 13.334 8.06732 13.334Z" fill="#1C1B1F"/>
</g>
</svg>
