<svg width="16" height="16" viewBox="0 0 16 16" fill="none" xmlns="http://www.w3.org/2000/svg">
<g clip-path="url(#clip0_563_1740)">
<path d="M13.25 3.25C12.8544 3.25 12.4678 3.3673 12.1389 3.58706C11.81 3.80682 11.5536 4.11918 11.4022 4.48463C11.2509 4.85009 11.2113 5.25222 11.2884 5.64018C11.3656 6.02814 11.5561 6.38451 11.8358 6.66421C12.1155 6.94392 12.4719 7.1344 12.8598 7.21157C13.2478 7.28874 13.6499 7.24913 14.0154 7.09776C14.3808 6.94638 14.6932 6.69004 14.9129 6.36114C15.1327 6.03224 15.25 5.64556 15.25 5.25C15.25 4.71957 15.0393 4.21086 14.6642 3.83579C14.2891 3.46071 13.7804 3.25 13.25 3.25ZM13.25 5.75C13.1511 5.75 13.0544 5.72068 12.9722 5.66573C12.89 5.61079 12.8259 5.5327 12.7881 5.44134C12.7502 5.34998 12.7403 5.24945 12.7596 5.15245C12.7789 5.05546 12.8265 4.96637 12.8964 4.89645C12.9664 4.82652 13.0555 4.7789 13.1525 4.75961C13.2494 4.74031 13.35 4.75022 13.4413 4.78806C13.5327 4.8259 13.6108 4.88999 13.6657 4.97221C13.7207 5.05444 13.75 5.15111 13.75 5.25C13.75 5.38261 13.6973 5.50979 13.6036 5.60355C13.5098 5.69732 13.3826 5.75 13.25 5.75ZM10 3.5C10 2.63805 9.65759 1.8114 9.0481 1.2019C8.4386 0.59241 7.61196 0.25 6.75 0.25C5.88805 0.25 5.0614 0.59241 4.4519 1.2019C3.84241 1.8114 3.5 2.63805 3.5 3.5V9.41813C3.07114 10.0159 2.81542 10.7203 2.76097 11.4539C2.70652 12.1876 2.85546 12.922 3.19139 13.5765C3.52733 14.231 4.03725 14.7802 4.66508 15.1636C5.29291 15.5471 6.01433 15.75 6.75 15.75C7.48567 15.75 8.20709 15.5471 8.83492 15.1636C9.46275 14.7802 9.97267 14.231 10.3086 13.5765C10.6445 12.922 10.7935 12.1876 10.739 11.4539C10.6846 10.7203 10.4289 10.0159 10 9.41813V3.5ZM6.75 14.25C6.27633 14.25 5.8124 14.1155 5.41223 13.862C5.01207 13.6086 4.69215 13.2466 4.48972 12.8184C4.28729 12.3902 4.21068 11.9132 4.26883 11.4431C4.32697 10.973 4.51746 10.5291 4.81813 10.1631C4.9354 10.027 4.99994 9.85339 5 9.67375V3.5C5 3.03587 5.18438 2.59075 5.51256 2.26256C5.84075 1.93437 6.28587 1.75 6.75 1.75C7.21413 1.75 7.65925 1.93437 7.98744 2.26256C8.31563 2.59075 8.5 3.03587 8.5 3.5V9.67313C8.49983 9.84844 8.56109 10.0183 8.67313 10.1531C8.97636 10.5184 9.16933 10.9625 9.22946 11.4334C9.28959 11.9043 9.21439 12.3826 9.01266 12.8123C8.81093 13.2421 8.49102 13.6055 8.09033 13.8601C7.68964 14.1147 7.22474 14.2499 6.75 14.25ZM8.25 11.75C8.25005 12.0133 8.18079 12.272 8.04917 12.5001C7.91754 12.7281 7.72821 12.9175 7.50019 13.0492C7.27217 13.1809 7.0135 13.2503 6.75018 13.2503C6.48686 13.2503 6.22818 13.181 6.00013 13.0494C5.77207 12.9178 5.58269 12.7284 5.45102 12.5004C5.31934 12.2724 5.25001 12.0137 5.25 11.7504C5.24999 11.487 5.31929 11.2284 5.45095 11.0003C5.5826 10.7723 5.77196 10.5829 6 10.4513V5.75C6 5.55109 6.07902 5.36032 6.21967 5.21967C6.36032 5.07902 6.55109 5 6.75 5C6.94891 5 7.13968 5.07902 7.28033 5.21967C7.42098 5.36032 7.5 5.55109 7.5 5.75V10.4513C7.72799 10.5829 7.91732 10.7722 8.04897 11.0002C8.18062 11.2281 8.24995 11.4867 8.25 11.75Z" fill="black"/>
</g>
<defs>
<clipPath id="clip0_563_1740">
<rect width="16" height="16" fill="white"/>
</clipPath>
</defs>
</svg>
