<svg width="16" height="16" viewBox="0 0 16 16" fill="none" xmlns="http://www.w3.org/2000/svg">
<mask id="mask0_563_1749" style="mask-type:alpha" maskUnits="userSpaceOnUse" x="0" y="0" width="16" height="16">
<rect width="16" height="16" fill="#D9D9D9"/>
</mask>
<g mask="url(#mask0_563_1749)">
<path d="M7.33268 3.33268V0.666016H8.66602V3.33268H7.33268ZM11.766 5.16602L10.8493 4.24935L12.716 2.33268L13.6493 3.28268L11.766 5.16602ZM12.666 8.66602V7.33268H15.3327V8.66602H12.666ZM7.33268 15.3327V12.666H8.66602V15.3327H7.33268ZM4.23268 5.13268L2.33268 3.28268L3.28268 2.34935L5.16602 4.23268L4.23268 5.13268ZM12.6994 13.666L10.8493 11.7493L11.7493 10.8493L13.6493 12.6827L12.6994 13.666ZM0.666016 8.66602V7.33268H3.33268V8.66602H0.666016ZM3.28268 13.666L2.34935 12.716L4.21602 10.8493L4.69935 11.2993L5.18268 11.766L3.28268 13.666ZM7.99935 11.9993C6.88824 11.9993 5.94379 11.6105 5.16602 10.8327C4.38824 10.0549 3.99935 9.11046 3.99935 7.99935C3.99935 6.88824 4.38824 5.94379 5.16602 5.16602C5.94379 4.38824 6.88824 3.99935 7.99935 3.99935C9.11046 3.99935 10.0549 4.38824 10.8327 5.16602C11.6105 5.94379 11.9993 6.88824 11.9993 7.99935C11.9993 9.11046 11.6105 10.0549 10.8327 10.8327C10.0549 11.6105 9.11046 11.9993 7.99935 11.9993ZM7.99935 10.666C8.73268 10.666 9.36046 10.4049 9.88268 9.88268C10.4049 9.36046 10.666 8.73268 10.666 7.99935C10.666 7.26602 10.4049 6.63824 9.88268 6.11602C9.36046 5.59379 8.73268 5.33268 7.99935 5.33268C7.26602 5.33268 6.63824 5.59379 6.11602 6.11602C5.59379 6.63824 5.33268 7.26602 5.33268 7.99935C5.33268 8.73268 5.59379 9.36046 6.11602 9.88268C6.63824 10.4049 7.26602 10.666 7.99935 10.666Z" fill="#1C1B1F"/>
</g>
</svg>
