<svg width="16" height="16" viewBox="0 0 16 16" fill="none" xmlns="http://www.w3.org/2000/svg">
<mask id="mask0_694_19" style="mask-type:alpha" maskUnits="userSpaceOnUse" x="0" y="0" width="16" height="16">
<rect width="16" height="16" fill="#D9D9D9"/>
</mask>
<g mask="url(#mask0_694_19)">
<path d="M9.41602 9.41602C9.8049 9.02713 9.99935 8.5549 9.99935 7.99935C9.99935 7.44379 9.8049 6.97157 9.41602 6.58268C9.02713 6.19379 8.5549 5.99935 7.99935 5.99935C7.44379 5.99935 6.97157 6.19379 6.58268 6.58268C6.19379 6.97157 5.99935 7.44379 5.99935 7.99935C5.99935 8.5549 6.19379 9.02713 6.58268 9.41602C6.97157 9.8049 7.44379 9.99935 7.99935 9.99935C8.5549 9.99935 9.02713 9.8049 9.41602 9.41602ZM5.64102 10.3577C4.99102 9.70768 4.66602 8.92157 4.66602 7.99935C4.66602 7.07713 4.99102 6.29102 5.64102 5.64102C6.29102 4.99102 7.07713 4.66602 7.99935 4.66602C8.92157 4.66602 9.70768 4.99102 10.3577 5.64102C11.0077 6.29102 11.3327 7.07713 11.3327 7.99935C11.3327 8.92157 11.0077 9.70768 10.3577 10.3577C9.70768 11.0077 8.92157 11.3327 7.99935 11.3327C7.07713 11.3327 6.29102 11.0077 5.64102 10.3577ZM3.33268 8.66602H0.666016V7.33268H3.33268V8.66602ZM15.3327 8.66602H12.666V7.33268H15.3327V8.66602ZM7.33268 3.33268V0.666016H8.66602V3.33268H7.33268ZM7.33268 15.3327V12.666H8.66602V15.3327H7.33268ZM4.26602 5.16602L2.58268 3.54935L3.53268 2.56602L5.13268 4.23268L4.26602 5.16602ZM12.466 13.4327L10.8493 11.7493L11.7327 10.8327L13.416 12.4494L12.466 13.4327ZM10.8327 4.26602L12.4494 2.58268L13.4327 3.53268L11.766 5.13268L10.8327 4.26602ZM2.56602 12.466L4.24935 10.8493L5.16602 11.7327L3.54935 13.416L2.56602 12.466Z" fill="#1C1B1F"/>
</g>
</svg>
