<svg width="16" height="16" viewBox="0 0 16 16" fill="none" xmlns="http://www.w3.org/2000/svg">
<mask id="mask0_563_1863" style="mask-type:alpha" maskUnits="userSpaceOnUse" x="0" y="0" width="16" height="16">
<rect width="16" height="16" fill="#D9D9D9"/>
</mask>
<g mask="url(#mask0_563_1863)">
<path d="M6.96732 10.3327C7.23398 10.5993 7.57843 10.7299 8.00065 10.7243C8.42287 10.7188 8.73398 10.566 8.93398 10.266L12.6673 4.66602L7.06732 8.39935C6.76732 8.59935 6.60898 8.9049 6.59232 9.31602C6.57565 9.72713 6.70065 10.066 6.96732 10.3327ZM8.00065 2.66602C8.65621 2.66602 9.28676 2.75768 9.89232 2.94102C10.4979 3.12435 11.0673 3.39935 11.6007 3.76602L10.334 4.56602C9.96732 4.37713 9.58676 4.23546 9.19232 4.14102C8.79787 4.04657 8.40065 3.99935 8.00065 3.99935C6.52287 3.99935 5.26454 4.51879 4.22565 5.55768C3.18676 6.59657 2.66732 7.8549 2.66732 9.33268C2.66732 9.79935 2.73121 10.2605 2.85898 10.716C2.98676 11.1716 3.16732 11.5993 3.40065 11.9993H12.6007C12.8562 11.5771 13.0423 11.1382 13.159 10.6827C13.2757 10.2271 13.334 9.75491 13.334 9.26602C13.334 8.86602 13.2868 8.47713 13.1923 8.09935C13.0979 7.72157 12.9562 7.3549 12.7673 6.99935L13.5673 5.73268C13.9007 6.2549 14.1645 6.81046 14.359 7.39935C14.5534 7.98824 14.6562 8.59935 14.6673 9.23268C14.6784 9.86602 14.6062 10.4716 14.4507 11.0493C14.2951 11.6271 14.0673 12.1771 13.7673 12.6993C13.6451 12.8993 13.4784 13.0549 13.2673 13.166C13.0562 13.2771 12.834 13.3327 12.6007 13.3327H3.40065C3.16732 13.3327 2.9451 13.2771 2.73398 13.166C2.52287 13.0549 2.35621 12.8993 2.23398 12.6993C1.9451 12.1993 1.72287 11.6688 1.56732 11.1077C1.41176 10.5466 1.33398 9.9549 1.33398 9.33268C1.33398 8.41046 1.50898 7.54657 1.85898 6.74102C2.20898 5.93546 2.68676 5.2299 3.29232 4.62435C3.89787 4.01879 4.60621 3.54102 5.41732 3.19102C6.22843 2.84102 7.08954 2.66602 8.00065 2.66602Z" fill="#1C1B1F"/>
</g>
</svg>
