<svg width="16" height="16" viewBox="0 0 16 16" fill="none" xmlns="http://www.w3.org/2000/svg">
<mask id="mask0_694_7" style="mask-type:alpha" maskUnits="userSpaceOnUse" x="0" y="0" width="16" height="16">
<rect width="16" height="16" fill="#D9D9D9"/>
</mask>
<g mask="url(#mask0_694_7)">
<path d="M8 14C6.33333 14 4.91667 13.4167 3.75 12.25C2.58333 11.0833 2 9.66667 2 8C2 6.33333 2.58333 4.91667 3.75 3.75C4.91667 2.58333 6.33333 2 8 2C8.15556 2 8.30833 2.00556 8.45833 2.01667C8.60833 2.02778 8.75556 2.04444 8.9 2.06667C8.44444 2.38889 8.08056 2.80833 7.80833 3.325C7.53611 3.84167 7.4 4.4 7.4 5C7.4 6 7.75 6.85 8.45 7.55C9.15 8.25 10 8.6 11 8.6C11.6111 8.6 12.1722 8.46389 12.6833 8.19167C13.1944 7.91944 13.6111 7.55556 13.9333 7.1C13.9556 7.24444 13.9722 7.39167 13.9833 7.54167C13.9944 7.69167 14 7.84444 14 8C14 9.66667 13.4167 11.0833 12.25 12.25C11.0833 13.4167 9.66667 14 8 14ZM8 12.6667C8.97778 12.6667 9.85556 12.3972 10.6333 11.8583C11.4111 11.3194 11.9778 10.6167 12.3333 9.75C12.1111 9.80556 11.8889 9.85 11.6667 9.88333C11.4444 9.91667 11.2222 9.93333 11 9.93333C9.63333 9.93333 8.46944 9.45278 7.50833 8.49167C6.54722 7.53056 6.06667 6.36667 6.06667 5C6.06667 4.77778 6.08333 4.55556 6.11667 4.33333C6.15 4.11111 6.19444 3.88889 6.25 3.66667C5.38333 4.02222 4.68056 4.58889 4.14167 5.36667C3.60278 6.14444 3.33333 7.02222 3.33333 8C3.33333 9.28889 3.78889 10.3889 4.7 11.3C5.61111 12.2111 6.71111 12.6667 8 12.6667Z" fill="#1C1B1F"/>
</g>
</svg>
